<svg width="100" height="100" viewBox="0 0 100 100" fill="none" xmlns="http://www.w3.org/2000/svg">
<path d="M50 16C68.8 16 84 31.2 84 50C84 68.8 68.8 84 50 84C31.2 84 16 68.8 16 50C16 31.2 31.2 16 50 16ZM50 80C66.6 80 80 66.6 80 50C80 33.4 66.6 20 50 20C33.4 20 20 33.4 20 50C20 66.6 33.4 80 50 80Z" fill="white"/>
<path d="M49.3998 30.5999L68.7998 49.9999L49.3998 69.3999L46.5998 66.5999L63.1998 49.9999L46.5998 33.3999L49.3998 30.5999Z" fill="white"/>
<path d="M66 52L32 52L32 48L66 48L66 52Z" fill="white"/>
</svg>
