<svg width="100" height="100" viewBox="0 0 100 100" fill="none" xmlns="http://www.w3.org/2000/svg">
<path d="M50 16C31.2 16 16 31.2 16 50C16 68.8 31.2 84 50 84C68.8 84 84 68.8 84 50C84 31.2 68.8 16 50 16ZM50 80C33.4 80 20 66.6 20 50C20 33.4 33.4 20 50 20C66.6 20 80 33.4 80 50C80 66.6 66.6 80 50 80Z" fill="white"/>
<path d="M50.6002 30.5999L31.2002 49.9999L50.6002 69.3999L53.4002 66.5999L36.8002 49.9999L53.4002 33.3999L50.6002 30.5999Z" fill="white"/>
<path d="M34 52L68 52L68 48L34 48L34 52Z" fill="white"/>
</svg>
