<svg width="47" height="47" viewBox="0 0 47 47" fill="none" xmlns="http://www.w3.org/2000/svg">
<rect width="47" height="47" rx="23.5" fill="#EEC318"/>
<path d="M25.9677 13.354C24.4695 13.354 23.0325 13.9491 21.9731 15.0085C20.9137 16.0679 20.3185 17.5047 20.3185 19.0028V22.1479H17.2953C17.1439 22.1479 17.0205 22.27 17.0205 22.4227V26.5753C17.0205 26.7268 17.1427 26.8501 17.2953 26.8501H20.3185V35.3692C20.3185 35.5206 20.4406 35.644 20.5933 35.644H24.7463C24.8977 35.644 25.0211 35.5219 25.0211 35.3692V26.8501H28.0711C28.1969 26.8501 28.3068 26.7646 28.3374 26.6425L29.3756 22.4898C29.3858 22.4493 29.3867 22.407 29.3781 22.3661C29.3695 22.3252 29.3517 22.2868 29.326 22.2539C29.3003 22.2209 29.2675 22.1942 29.2299 22.1758C29.1924 22.1575 29.1511 22.1479 29.1094 22.1479H25.0211V19.0028C25.0211 18.8785 25.0456 18.7554 25.0932 18.6406C25.1407 18.5258 25.2105 18.4214 25.2984 18.3335C25.3863 18.2456 25.4906 18.1759 25.6055 18.1283C25.7203 18.0808 25.8434 18.0563 25.9677 18.0563H29.1436C29.295 18.0563 29.4184 17.9341 29.4184 17.7815V13.6288C29.4184 13.4774 29.2962 13.354 29.1436 13.354H25.9677Z" fill="black"/>
<path d="M25.9472 13C24.449 13 23.012 13.5951 21.9526 14.6545C20.8931 15.7139 20.298 17.1507 20.298 18.6488V21.7939H17.2748C17.1234 21.7939 17 21.916 17 22.0687V26.2213C17 26.3728 17.1221 26.4961 17.2748 26.4961H20.298V35.0152C20.298 35.1666 20.4201 35.29 20.5728 35.29H24.7258C24.8772 35.29 25.0006 35.1679 25.0006 35.0152V26.4961H28.0506C28.1764 26.4961 28.2863 26.4106 28.3169 26.2885L29.3551 22.1358C29.3653 22.0953 29.3662 22.053 29.3576 22.0121C29.349 21.9712 29.3312 21.9328 29.3055 21.8998C29.2798 21.8669 29.247 21.8402 29.2094 21.8218C29.1719 21.8035 29.1306 21.7939 29.0888 21.7939H25.0006V18.6488C25.0006 18.5245 25.0251 18.4014 25.0727 18.2866C25.1202 18.1718 25.19 18.0674 25.2779 17.9795C25.3658 17.8916 25.4701 17.8219 25.585 17.7743C25.6998 17.7268 25.8229 17.7023 25.9472 17.7023H29.123C29.2745 17.7023 29.3979 17.5801 29.3979 17.4275V13.2748C29.3979 13.1234 29.2757 13 29.123 13H25.9472Z" fill="black"/>
</svg>
