<svg width="457" height="457" viewBox="0 0 457 457" fill="none" xmlns="http://www.w3.org/2000/svg">
<circle cx="228.08" cy="228.08" r="228.08" fill="#ED2931"/>
<path d="M89.7936 194.4H101.122V228H89.7936V194.4ZM79.3296 228H68.0016V194.4H79.3296V228ZM90.5616 215.616H78.5616V206.304H90.5616V215.616ZM120.116 228.48C117.14 228.48 114.5 227.904 112.196 226.752C109.924 225.568 108.132 223.952 106.82 221.904C105.508 219.856 104.852 217.504 104.852 214.848C104.852 212.192 105.508 209.84 106.82 207.792C108.132 205.744 109.924 204.144 112.196 202.992C114.5 201.84 117.14 201.264 120.116 201.264C123.092 201.264 125.732 201.84 128.036 202.992C130.34 204.144 132.132 205.744 133.412 207.792C134.724 209.84 135.38 212.192 135.38 214.848C135.38 217.504 134.724 219.856 133.412 221.904C132.132 223.952 130.34 225.568 128.036 226.752C125.732 227.904 123.092 228.48 120.116 228.48ZM120.116 220.032C120.916 220.032 121.636 219.84 122.276 219.456C122.916 219.072 123.428 218.496 123.812 217.728C124.196 216.928 124.388 215.968 124.388 214.848C124.388 213.696 124.196 212.752 123.812 212.016C123.428 211.248 122.916 210.672 122.276 210.288C121.636 209.904 120.916 209.712 120.116 209.712C119.316 209.712 118.596 209.904 117.956 210.288C117.316 210.672 116.804 211.248 116.42 212.016C116.036 212.752 115.844 213.696 115.844 214.848C115.844 215.968 116.036 216.928 116.42 217.728C116.804 218.496 117.316 219.072 117.956 219.456C118.596 219.84 119.316 220.032 120.116 220.032ZM144.504 228L135.384 201.744H145.656L152.568 223.056H147.624L154.872 201.744H164.088L171 223.056H166.2L173.352 201.744H182.856L173.736 228H163.176L157.656 211.104H160.824L155.064 228H144.504ZM210.858 228.48C208.586 228.48 206.474 227.936 204.522 226.848C202.602 225.728 201.066 224.16 199.914 222.144C198.762 220.096 198.186 217.664 198.186 214.848C198.186 212.032 198.762 209.616 199.914 207.6C201.066 205.552 202.602 203.984 204.522 202.896C206.474 201.808 208.586 201.264 210.858 201.264C213.162 201.264 215.05 201.76 216.522 202.752C217.994 203.712 219.082 205.2 219.786 207.216C220.49 209.2 220.842 211.744 220.842 214.848C220.842 217.984 220.506 220.56 219.834 222.576C219.194 224.592 218.138 226.08 216.666 227.04C215.226 228 213.29 228.48 210.858 228.48ZM213.45 220.032C214.25 220.032 214.97 219.84 215.61 219.456C216.25 219.072 216.762 218.496 217.146 217.728C217.53 216.928 217.722 215.968 217.722 214.848C217.722 213.696 217.53 212.752 217.146 212.016C216.762 211.248 216.25 210.672 215.61 210.288C214.97 209.904 214.25 209.712 213.45 209.712C212.65 209.712 211.93 209.904 211.29 210.288C210.65 210.672 210.138 211.248 209.754 212.016C209.37 212.752 209.178 213.696 209.178 214.848C209.178 215.968 209.37 216.928 209.754 217.728C210.138 218.496 210.65 219.072 211.29 219.456C211.93 219.84 212.65 220.032 213.45 220.032ZM218.058 228V224.448L218.01 214.848L217.53 205.248V192.384H228.378V228H218.058ZM233.181 228V201.744H244.029V228H233.181ZM238.605 199.632C236.621 199.632 235.037 199.104 233.853 198.048C232.669 196.992 232.077 195.68 232.077 194.112C232.077 192.544 232.669 191.232 233.853 190.176C235.037 189.12 236.621 188.592 238.605 188.592C240.589 188.592 242.173 189.088 243.357 190.08C244.541 191.072 245.133 192.352 245.133 193.92C245.133 195.584 244.541 196.96 243.357 198.048C242.173 199.104 240.589 199.632 238.605 199.632ZM260.358 228.48C258.086 228.48 255.974 227.936 254.022 226.848C252.102 225.728 250.566 224.16 249.414 222.144C248.262 220.096 247.686 217.664 247.686 214.848C247.686 212.032 248.262 209.616 249.414 207.6C250.566 205.552 252.102 203.984 254.022 202.896C255.974 201.808 258.086 201.264 260.358 201.264C262.662 201.264 264.55 201.76 266.022 202.752C267.494 203.712 268.582 205.2 269.286 207.216C269.99 209.2 270.342 211.744 270.342 214.848C270.342 217.984 270.006 220.56 269.334 222.576C268.694 224.592 267.638 226.08 266.166 227.04C264.726 228 262.79 228.48 260.358 228.48ZM262.95 220.032C263.75 220.032 264.47 219.84 265.11 219.456C265.75 219.072 266.262 218.496 266.646 217.728C267.03 216.928 267.222 215.968 267.222 214.848C267.222 213.696 267.03 212.752 266.646 212.016C266.262 211.248 265.75 210.672 265.11 210.288C264.47 209.904 263.75 209.712 262.95 209.712C262.15 209.712 261.43 209.904 260.79 210.288C260.15 210.672 259.638 211.248 259.254 212.016C258.87 212.752 258.678 213.696 258.678 214.848C258.678 215.968 258.87 216.928 259.254 217.728C259.638 218.496 260.15 219.072 260.79 219.456C261.43 219.84 262.15 220.032 262.95 220.032ZM267.558 228V224.448L267.51 214.848L267.03 205.248V192.384H277.878V228H267.558ZM307.344 228.48C305.104 228.48 302.896 228.24 300.72 227.76C298.544 227.28 296.784 226.656 295.44 225.888L298.416 218.736C299.664 219.472 301.104 220.048 302.736 220.464C304.4 220.88 306.016 221.088 307.584 221.088C308.896 221.088 309.776 220.976 310.224 220.752C310.704 220.528 310.944 220.224 310.944 219.84C310.944 219.456 310.672 219.184 310.128 219.024C309.584 218.832 308.864 218.688 307.968 218.592C307.072 218.496 306.08 218.384 304.992 218.256C303.936 218.096 302.864 217.872 301.776 217.584C300.688 217.296 299.696 216.864 298.8 216.288C297.904 215.712 297.184 214.944 296.64 213.984C296.096 212.992 295.824 211.744 295.824 210.24C295.824 208.576 296.32 207.072 297.312 205.728C298.336 204.384 299.84 203.312 301.824 202.512C303.84 201.68 306.32 201.264 309.264 201.264C311.184 201.264 313.104 201.44 315.024 201.792C316.944 202.144 318.592 202.688 319.968 203.424L316.992 210.576C315.648 209.84 314.32 209.344 313.008 209.088C311.728 208.8 310.528 208.656 309.408 208.656C308.032 208.656 307.088 208.784 306.576 209.04C306.096 209.296 305.856 209.584 305.856 209.904C305.856 210.288 306.128 210.576 306.672 210.768C307.216 210.96 307.936 211.104 308.832 211.2C309.728 211.296 310.704 211.424 311.76 211.584C312.848 211.712 313.92 211.936 314.976 212.256C316.064 212.544 317.056 212.976 317.952 213.552C318.848 214.128 319.568 214.912 320.112 215.904C320.656 216.864 320.928 218.096 320.928 219.6C320.928 221.168 320.432 222.64 319.44 224.016C318.448 225.36 316.944 226.448 314.928 227.28C312.912 228.08 310.384 228.48 307.344 228.48ZM342.453 201.264C344.469 201.264 346.293 201.68 347.925 202.512C349.557 203.312 350.837 204.576 351.765 206.304C352.725 208.032 353.205 210.272 353.205 213.024V228H342.357V214.896C342.357 213.264 342.069 212.112 341.493 211.44C340.917 210.736 340.133 210.384 339.141 210.384C338.405 210.384 337.717 210.56 337.077 210.912C336.469 211.232 335.973 211.776 335.589 212.544C335.237 213.312 335.061 214.352 335.061 215.664V228H324.213V192.384H335.061V209.424L332.469 207.216C333.493 205.232 334.869 203.744 336.597 202.752C338.357 201.76 340.309 201.264 342.453 201.264ZM372.88 228.48C369.68 228.48 366.88 227.888 364.48 226.704C362.112 225.52 360.272 223.904 358.96 221.856C357.648 219.776 356.992 217.44 356.992 214.848C356.992 212.192 357.632 209.84 358.912 207.792C360.224 205.744 362 204.144 364.24 202.992C366.512 201.84 369.056 201.264 371.872 201.264C374.464 201.264 376.848 201.776 379.024 202.8C381.232 203.824 382.992 205.344 384.304 207.36C385.648 209.376 386.32 211.872 386.32 214.848C386.32 215.232 386.304 215.664 386.272 216.144C386.24 216.592 386.208 217.008 386.176 217.392H365.968V212.16H380.416L376.336 213.552C376.336 212.528 376.144 211.664 375.76 210.96C375.408 210.224 374.912 209.664 374.272 209.28C373.632 208.864 372.864 208.656 371.968 208.656C371.072 208.656 370.288 208.864 369.616 209.28C368.976 209.664 368.48 210.224 368.128 210.96C367.776 211.664 367.6 212.528 367.6 213.552V215.184C367.6 216.304 367.824 217.264 368.272 218.064C368.72 218.864 369.36 219.472 370.192 219.888C371.024 220.272 372.032 220.464 373.216 220.464C374.432 220.464 375.424 220.304 376.192 219.984C376.992 219.664 377.824 219.184 378.688 218.544L384.352 224.256C383.072 225.632 381.488 226.688 379.6 227.424C377.744 228.128 375.504 228.48 372.88 228.48ZM183.899 287.48C181.659 287.48 179.451 287.24 177.275 286.76C175.099 286.28 173.339 285.656 171.995 284.888L174.971 277.736C176.219 278.472 177.659 279.048 179.291 279.464C180.955 279.88 182.571 280.088 184.139 280.088C185.451 280.088 186.331 279.976 186.779 279.752C187.259 279.528 187.499 279.224 187.499 278.84C187.499 278.456 187.227 278.184 186.683 278.024C186.139 277.832 185.419 277.688 184.523 277.592C183.627 277.496 182.635 277.384 181.547 277.256C180.491 277.096 179.419 276.872 178.331 276.584C177.243 276.296 176.251 275.864 175.355 275.288C174.459 274.712 173.739 273.944 173.195 272.984C172.651 271.992 172.379 270.744 172.379 269.24C172.379 267.576 172.875 266.072 173.867 264.728C174.891 263.384 176.395 262.312 178.379 261.512C180.395 260.68 182.875 260.264 185.819 260.264C187.739 260.264 189.659 260.44 191.579 260.792C193.499 261.144 195.147 261.688 196.523 262.424L193.547 269.576C192.203 268.84 190.875 268.344 189.563 268.088C188.283 267.8 187.083 267.656 185.963 267.656C184.587 267.656 183.643 267.784 183.131 268.04C182.651 268.296 182.411 268.584 182.411 268.904C182.411 269.288 182.683 269.576 183.227 269.768C183.771 269.96 184.491 270.104 185.387 270.2C186.283 270.296 187.259 270.424 188.315 270.584C189.403 270.712 190.475 270.936 191.531 271.256C192.619 271.544 193.611 271.976 194.507 272.552C195.403 273.128 196.123 273.912 196.667 274.904C197.211 275.864 197.483 277.096 197.483 278.6C197.483 280.168 196.987 281.64 195.995 283.016C195.003 284.36 193.499 285.448 191.483 286.28C189.467 287.08 186.939 287.48 183.899 287.48ZM213.439 287.48C209.823 287.48 207.007 286.616 204.991 284.888C202.975 283.128 201.967 280.44 201.967 276.824V254.84H212.815V276.728C212.815 277.528 213.023 278.152 213.439 278.6C213.887 279.048 214.431 279.272 215.071 279.272C215.999 279.272 216.815 279.032 217.519 278.552L220.111 286.088C219.279 286.568 218.271 286.92 217.087 287.144C215.935 287.368 214.719 287.48 213.439 287.48ZM198.367 270.104V262.184H218.191V270.104H198.367ZM238.733 287V282.344L237.965 281.096V272.264C237.965 270.984 237.565 270.008 236.765 269.336C235.997 268.664 234.733 268.328 232.973 268.328C231.789 268.328 230.589 268.52 229.373 268.904C228.157 269.256 227.117 269.752 226.253 270.392L222.797 263.24C224.333 262.28 226.173 261.544 228.317 261.032C230.461 260.52 232.557 260.264 234.605 260.264C239.117 260.264 242.605 261.272 245.069 263.288C247.565 265.304 248.813 268.504 248.813 272.888V287H238.733ZM231.293 287.48C229.149 287.48 227.357 287.112 225.917 286.376C224.477 285.64 223.389 284.664 222.653 283.448C221.917 282.2 221.549 280.824 221.549 279.32C221.549 277.624 221.981 276.184 222.845 275C223.709 273.816 225.021 272.92 226.781 272.312C228.573 271.704 230.829 271.4 233.549 271.4H239.021V276.632H235.277C234.125 276.632 233.277 276.824 232.733 277.208C232.221 277.56 231.965 278.104 231.965 278.84C231.965 279.448 232.189 279.96 232.637 280.376C233.117 280.76 233.757 280.952 234.557 280.952C235.293 280.952 235.965 280.76 236.573 280.376C237.213 279.96 237.677 279.32 237.965 278.456L239.357 281.672C238.941 283.624 238.061 285.08 236.717 286.04C235.373 287 233.565 287.48 231.293 287.48ZM253.502 287V260.744H263.822V268.664L262.142 266.408C262.942 264.36 264.222 262.824 265.982 261.8C267.742 260.776 269.854 260.264 272.318 260.264V269.864C271.838 269.8 271.406 269.752 271.022 269.72C270.67 269.688 270.302 269.672 269.918 269.672C268.286 269.672 266.942 270.104 265.886 270.968C264.862 271.8 264.35 273.256 264.35 275.336V287H253.502ZM288.767 287.48C285.151 287.48 282.335 286.616 280.319 284.888C278.303 283.128 277.295 280.44 277.295 276.824V254.84H288.143V276.728C288.143 277.528 288.351 278.152 288.767 278.6C289.215 279.048 289.759 279.272 290.399 279.272C291.327 279.272 292.143 279.032 292.847 278.552L295.439 286.088C294.607 286.568 293.599 286.92 292.415 287.144C291.263 287.368 290.047 287.48 288.767 287.48ZM273.695 270.104V262.184H293.519V270.104H273.695Z" fill="black"/>
</svg>
