<svg width="47" height="47" viewBox="0 0 47 47" fill="none" xmlns="http://www.w3.org/2000/svg">
<rect width="47" height="47" rx="23.5" fill="#EEC318"/>
<path d="M30.4058 19.0341C31.2011 19.0341 31.8458 18.3893 31.8458 17.5941C31.8458 16.7988 31.2011 16.1541 30.4058 16.1541C29.6105 16.1541 28.9658 16.7988 28.9658 17.5941C28.9658 18.3893 29.6105 19.0341 30.4058 19.0341Z" fill="black"/>
<path d="M23.9999 17.838C22.7812 17.838 21.5898 18.1994 20.5765 18.8765C19.5631 19.5536 18.7733 20.516 18.3069 21.6419C17.8406 22.7679 17.7185 24.0068 17.9563 25.2022C18.1941 26.3975 18.7809 27.4954 19.6427 28.3572C20.5045 29.219 21.6024 29.8058 22.7977 30.0436C23.9931 30.2814 25.232 30.1593 26.358 29.693C27.4839 29.2266 28.4463 28.4368 29.1234 27.4234C29.8005 26.4101 30.1619 25.2187 30.1619 24C30.1619 22.3657 29.5127 20.7984 28.3571 19.6428C27.2015 18.4872 25.6342 17.838 23.9999 17.838ZM23.9999 28C23.2088 28 22.4354 27.7654 21.7776 27.3259C21.1198 26.8864 20.6071 26.2616 20.3044 25.5307C20.0016 24.7998 19.9224 23.9956 20.0768 23.2197C20.2311 22.4437 20.6121 21.731 21.1715 21.1716C21.7309 20.6122 22.4436 20.2312 23.2195 20.0769C23.9955 19.9225 24.7997 20.0017 25.5306 20.3045C26.2615 20.6072 26.8862 21.1199 27.3258 21.7777C27.7653 22.4355 27.9999 23.2089 27.9999 24C27.9999 25.0609 27.5785 26.0783 26.8283 26.8284C26.0782 27.5786 25.0608 28 23.9999 28Z" fill="black"/>
<path d="M24 14.162C27.204 14.162 27.584 14.174 28.849 14.232C29.6098 14.241 30.3635 14.3807 31.077 14.645C31.5947 14.8447 32.0648 15.1505 32.4571 15.5429C32.8495 15.9352 33.1553 16.4053 33.355 16.923C33.6193 17.6365 33.759 18.3902 33.768 19.151C33.826 20.416 33.838 20.796 33.838 24.001C33.838 27.206 33.826 27.584 33.768 28.849C33.759 29.6098 33.6193 30.3635 33.355 31.077C33.1553 31.5947 32.8495 32.0648 32.4571 32.4571C32.0648 32.8495 31.5947 33.1553 31.077 33.355C30.3635 33.6193 29.6098 33.759 28.849 33.768C27.584 33.826 27.204 33.838 24 33.838C20.796 33.838 20.416 33.826 19.151 33.768C18.3902 33.759 17.6365 33.6193 16.923 33.355C16.4053 33.1553 15.9352 32.8495 15.5429 32.4571C15.1505 32.0648 14.8447 31.5947 14.645 31.077C14.3807 30.3635 14.241 29.6098 14.232 28.849C14.174 27.584 14.162 27.204 14.162 24C14.162 20.796 14.174 20.416 14.232 19.151C14.241 18.3902 14.3807 17.6365 14.645 16.923C14.8447 16.4053 15.1505 15.9352 15.5429 15.5429C15.9352 15.1505 16.4053 14.8447 16.923 14.645C17.6365 14.3807 18.3902 14.241 19.151 14.232C20.416 14.174 20.796 14.162 24 14.162ZM24 12C20.741 12 20.332 12.014 19.052 12.072C18.0568 12.0921 17.0722 12.2808 16.14 12.63C15.3427 12.9383 14.6187 13.4098 14.0142 14.0142C13.4098 14.6187 12.9383 15.3427 12.63 16.14C12.2807 17.0725 12.092 18.0574 12.072 19.053C12.014 20.333 12 20.74 12 24C12 27.26 12.014 27.668 12.072 28.948C12.0921 29.9432 12.2808 30.9278 12.63 31.86C12.9383 32.6573 13.4098 33.3813 14.0142 33.9858C14.6187 34.5902 15.3427 35.0617 16.14 35.37C17.0725 35.7193 18.0574 35.908 19.053 35.928C20.333 35.986 20.741 36 24 36C27.259 36 27.668 35.986 28.948 35.928C29.9436 35.908 30.9285 35.7193 31.861 35.37C32.6583 35.0617 33.3823 34.5902 33.9868 33.9858C34.5912 33.3813 35.0627 32.6573 35.371 31.86C35.72 30.9275 35.9083 29.9425 35.928 28.947C35.986 27.667 36 27.26 36 24C36 20.74 35.986 20.332 35.928 19.052C35.9079 18.0568 35.7192 17.0722 35.37 16.14C35.0617 15.3427 34.5902 14.6187 33.9858 14.0142C33.3813 13.4098 32.6573 12.9383 31.86 12.63C30.9275 12.281 29.9425 12.0927 28.947 12.073C27.667 12.013 27.26 12 24 12Z" fill="black"/>
</svg>
