<svg width="47" height="47" viewBox="0 0 47 47" fill="none" xmlns="http://www.w3.org/2000/svg">
<rect width="47" height="47" rx="23.5" fill="#EEC318"/>
<path d="M15.125 32C14.5406 32 14.0402 31.7917 13.6237 31.3752C13.2072 30.9587 12.9993 30.4587 13 29.875V17.125C13 16.5406 13.2083 16.0402 13.6248 15.6237C14.0413 15.2072 14.5413 14.9993 15.125 15H32.125C32.7094 15 33.2098 15.2083 33.6263 15.6248C34.0428 16.0413 34.2507 16.5413 34.25 17.125V29.875C34.25 30.4594 34.0417 30.9598 33.6252 31.3763C33.2087 31.7928 32.7087 32.0007 32.125 32H15.125ZM23.625 24.5625L15.125 19.25V29.875H32.125V19.25L23.625 24.5625ZM23.625 22.4375L32.125 17.125H15.125L23.625 22.4375ZM15.125 19.25V17.125V29.875V19.25Z" fill="black"/>
</svg>
