<svg width="72" height="53" viewBox="0 0 72 53" fill="none" xmlns="http://www.w3.org/2000/svg">
<path d="M2.48 52.968L13.232 17L17.456 33.128C12.5067 33.128 8.45333 31.72 5.296 28.904C2.13867 26.0027 0.56 22.0773 0.56 17.128C0.56 12.0933 2.13867 8.12533 5.296 5.224C8.53867 2.23733 12.592 0.743996 17.456 0.743996C22.32 0.743996 26.3307 2.23733 29.488 5.224C32.7307 8.12533 34.352 12.0933 34.352 17.128C34.352 18.4933 34.224 19.8587 33.968 21.224C33.7973 22.5893 33.3707 24.2533 32.688 26.216C32.0053 28.0933 30.896 30.6533 29.36 33.896L20.4 52.968H2.48ZM39.6 52.968L50.352 17L54.576 33.128C49.6267 33.128 45.5733 31.72 42.416 28.904C39.2587 26.0027 37.68 22.0773 37.68 17.128C37.68 12.0933 39.2587 8.12533 42.416 5.224C45.6587 2.23733 49.712 0.743996 54.576 0.743996C59.44 0.743996 63.4507 2.23733 66.608 5.224C69.8507 8.12533 71.472 12.0933 71.472 17.128C71.472 18.4933 71.344 19.8587 71.088 21.224C70.9173 22.5893 70.4907 24.2533 69.808 26.216C69.1253 28.0933 68.016 30.6533 66.48 33.896L57.52 52.968H39.6Z" fill="#ED2931"/>
</svg>
