<svg width="72" height="53" viewBox="0 0 72 53" fill="none" xmlns="http://www.w3.org/2000/svg">
<path d="M32.432 0.0239944L21.68 35.992L17.456 19.864C22.4907 19.864 26.544 21.272 29.616 24.088C32.7733 26.904 34.352 30.8293 34.352 35.864C34.352 40.8133 32.7307 44.7813 29.488 47.768C26.3307 50.7547 22.32 52.248 17.456 52.248C12.592 52.248 8.53867 50.7547 5.296 47.768C2.13867 44.7813 0.56 40.8133 0.56 35.864C0.56 34.4987 0.645334 33.1333 0.816 31.768C1.072 30.4027 1.54133 28.7387 2.224 26.776C2.992 24.8133 4.10133 22.2533 5.552 19.096L14.512 0.0239944H32.432ZM69.552 0.0239944L58.8 35.992L54.576 19.864C59.6107 19.864 63.664 21.272 66.736 24.088C69.8933 26.904 71.472 30.8293 71.472 35.864C71.472 40.8133 69.8507 44.7813 66.608 47.768C63.4507 50.7547 59.44 52.248 54.576 52.248C49.712 52.248 45.6587 50.7547 42.416 47.768C39.2587 44.7813 37.68 40.8133 37.68 35.864C37.68 34.4987 37.7653 33.1333 37.936 31.768C38.192 30.4027 38.6613 28.7387 39.344 26.776C40.112 24.8133 41.2213 22.2533 42.672 19.096L51.632 0.0239944H69.552Z" fill="#ED2931"/>
</svg>
