<svg width="47" height="47" viewBox="0 0 47 47" fill="none" xmlns="http://www.w3.org/2000/svg">
<rect width="47" height="47" rx="13" fill="#02A1F4"/>
<path d="M35.2269 17.9196C34.4291 18.2657 33.5855 18.4945 32.7221 18.5989C33.6329 18.0548 34.3155 17.1987 34.6432 16.1896C33.7872 16.6991 32.8503 17.0581 31.8731 17.251C31.2198 16.5426 30.35 16.0711 29.3999 15.9103C28.4498 15.7496 27.4733 15.9088 26.6234 16.3628C25.7735 16.8169 25.0984 17.5402 24.7039 18.4193C24.3094 19.2985 24.2179 20.2837 24.4436 21.2204C22.713 21.1329 21.0202 20.6823 19.4751 19.8978C17.93 19.1134 16.5672 18.0127 15.4753 16.6672C15.0923 17.3361 14.891 18.0935 14.8915 18.8642C14.8902 19.58 15.0658 20.285 15.4028 20.9164C15.7399 21.5478 16.2278 22.0862 16.8232 22.4834C16.1312 22.4646 15.4539 22.2789 14.8491 21.9421V21.9952C14.8543 22.998 15.2057 23.9683 15.8439 24.7419C16.4821 25.5155 17.3679 26.0449 18.3515 26.2406C17.9729 26.3558 17.5798 26.4166 17.184 26.421C16.9101 26.4178 16.6368 26.393 16.3668 26.3467C16.6469 27.2094 17.1889 27.9633 17.9175 28.5035C18.6461 29.0438 19.5249 29.3435 20.4318 29.3609C18.9004 30.5658 17.0099 31.2234 15.0613 31.2289C14.7066 31.2301 14.3521 31.2088 14 31.1652C15.9894 32.4497 18.3078 33.1316 20.6759 33.1287C22.31 33.1457 23.9312 32.8369 25.4446 32.2203C26.9581 31.6037 28.3335 30.6917 29.4905 29.5376C30.6476 28.3835 31.5631 27.0105 32.1836 25.4986C32.804 23.9867 33.117 22.3664 33.1042 20.7322V20.1697C33.937 19.5486 34.6553 18.7872 35.2269 17.9196Z" fill="#F5EFF0"/>
</svg>
