<svg width="457" height="457" viewBox="0 0 457 457" fill="none" xmlns="http://www.w3.org/2000/svg">
<circle cx="228.08" cy="228.08" r="228.08" fill="#ED2931"/>
<path d="M78.6304 228L67.8784 194.4H79.5424L88.2304 222.768H82.3744L91.5904 194.4H102.006L110.598 222.768H104.982L114.054 194.4H124.806L114.054 228H101.91L94.9024 204.768H98.1664L90.7744 228H78.6304ZM145.929 201.264C147.945 201.264 149.769 201.68 151.401 202.512C153.033 203.312 154.313 204.576 155.241 206.304C156.201 208.032 156.681 210.272 156.681 213.024V228H145.833V214.896C145.833 213.264 145.545 212.112 144.969 211.44C144.393 210.736 143.609 210.384 142.617 210.384C141.881 210.384 141.193 210.56 140.553 210.912C139.945 211.232 139.449 211.776 139.065 212.544C138.713 213.312 138.537 214.352 138.537 215.664V228H127.689V192.384H138.537V209.424L135.945 207.216C136.969 205.232 138.345 203.744 140.073 202.752C141.833 201.76 143.785 201.264 145.929 201.264ZM177.28 228V223.344L176.512 222.096V213.264C176.512 211.984 176.112 211.008 175.312 210.336C174.544 209.664 173.28 209.328 171.52 209.328C170.336 209.328 169.136 209.52 167.92 209.904C166.704 210.256 165.664 210.752 164.8 211.392L161.344 204.24C162.88 203.28 164.72 202.544 166.864 202.032C169.008 201.52 171.104 201.264 173.152 201.264C177.664 201.264 181.152 202.272 183.616 204.288C186.112 206.304 187.36 209.504 187.36 213.888V228H177.28ZM169.84 228.48C167.696 228.48 165.904 228.112 164.464 227.376C163.024 226.64 161.936 225.664 161.2 224.448C160.464 223.2 160.096 221.824 160.096 220.32C160.096 218.624 160.528 217.184 161.392 216C162.256 214.816 163.568 213.92 165.328 213.312C167.12 212.704 169.376 212.4 172.096 212.4H177.568V217.632H173.824C172.672 217.632 171.824 217.824 171.28 218.208C170.768 218.56 170.512 219.104 170.512 219.84C170.512 220.448 170.736 220.96 171.184 221.376C171.664 221.76 172.304 221.952 173.104 221.952C173.84 221.952 174.512 221.76 175.12 221.376C175.76 220.96 176.224 220.32 176.512 219.456L177.904 222.672C177.488 224.624 176.608 226.08 175.264 227.04C173.92 228 172.112 228.48 169.84 228.48ZM204.72 228.48C201.104 228.48 198.288 227.616 196.272 225.888C194.256 224.128 193.248 221.44 193.248 217.824V195.84H204.096V217.728C204.096 218.528 204.304 219.152 204.72 219.6C205.168 220.048 205.712 220.272 206.352 220.272C207.28 220.272 208.096 220.032 208.8 219.552L211.392 227.088C210.56 227.568 209.552 227.92 208.368 228.144C207.216 228.368 206 228.48 204.72 228.48ZM189.648 211.104V203.184H209.472V211.104H189.648ZM213.407 211.488L217.439 198L219.023 204.048C217.167 204.048 215.647 203.52 214.463 202.464C213.279 201.376 212.687 199.904 212.687 198.048C212.687 196.16 213.279 194.672 214.463 193.584C215.679 192.464 217.199 191.904 219.023 191.904C220.847 191.904 222.351 192.464 223.535 193.584C224.751 194.672 225.359 196.16 225.359 198.048C225.359 198.56 225.311 199.072 225.215 199.584C225.151 200.096 224.991 200.72 224.735 201.456C224.479 202.16 224.063 203.12 223.487 204.336L220.127 211.488H213.407ZM238.039 228.48C235.799 228.48 233.591 228.24 231.415 227.76C229.239 227.28 227.479 226.656 226.135 225.888L229.111 218.736C230.359 219.472 231.799 220.048 233.431 220.464C235.095 220.88 236.711 221.088 238.279 221.088C239.591 221.088 240.471 220.976 240.919 220.752C241.399 220.528 241.639 220.224 241.639 219.84C241.639 219.456 241.367 219.184 240.823 219.024C240.279 218.832 239.559 218.688 238.663 218.592C237.767 218.496 236.775 218.384 235.687 218.256C234.631 218.096 233.559 217.872 232.471 217.584C231.383 217.296 230.391 216.864 229.495 216.288C228.599 215.712 227.879 214.944 227.335 213.984C226.791 212.992 226.519 211.744 226.519 210.24C226.519 208.576 227.015 207.072 228.007 205.728C229.031 204.384 230.535 203.312 232.519 202.512C234.535 201.68 237.015 201.264 239.959 201.264C241.879 201.264 243.799 201.44 245.719 201.792C247.639 202.144 249.287 202.688 250.663 203.424L247.687 210.576C246.343 209.84 245.015 209.344 243.703 209.088C242.423 208.8 241.223 208.656 240.103 208.656C238.727 208.656 237.783 208.784 237.271 209.04C236.791 209.296 236.551 209.584 236.551 209.904C236.551 210.288 236.823 210.576 237.367 210.768C237.911 210.96 238.631 211.104 239.527 211.2C240.423 211.296 241.399 211.424 242.455 211.584C243.543 211.712 244.615 211.936 245.671 212.256C246.759 212.544 247.751 212.976 248.647 213.552C249.543 214.128 250.263 214.912 250.807 215.904C251.351 216.864 251.623 218.096 251.623 219.6C251.623 221.168 251.127 222.64 250.135 224.016C249.143 225.36 247.639 226.448 245.623 227.28C243.607 228.08 241.079 228.48 238.039 228.48ZM275.73 228L266.61 201.744H276.882L283.794 223.056H278.85L286.098 201.744H295.314L302.226 223.056H297.426L304.578 201.744H314.082L304.962 228H294.402L288.882 211.104H292.05L286.29 228H275.73ZM316.173 228V201.744H327.021V228H316.173ZM321.597 199.632C319.613 199.632 318.029 199.104 316.845 198.048C315.661 196.992 315.069 195.68 315.069 194.112C315.069 192.544 315.661 191.232 316.845 190.176C318.029 189.12 319.613 188.592 321.597 188.592C323.581 188.592 325.165 189.088 326.349 190.08C327.533 191.072 328.125 192.352 328.125 193.92C328.125 195.584 327.533 196.96 326.349 198.048C325.165 199.104 323.581 199.632 321.597 199.632ZM344.502 228.48C340.886 228.48 338.07 227.616 336.054 225.888C334.038 224.128 333.03 221.44 333.03 217.824V195.84H343.878V217.728C343.878 218.528 344.086 219.152 344.502 219.6C344.95 220.048 345.494 220.272 346.134 220.272C347.062 220.272 347.878 220.032 348.582 219.552L351.174 227.088C350.342 227.568 349.334 227.92 348.15 228.144C346.998 228.368 345.782 228.48 344.502 228.48ZM329.43 211.104V203.184H349.254V211.104H329.43ZM372.148 201.264C374.164 201.264 375.988 201.68 377.62 202.512C379.252 203.312 380.532 204.576 381.46 206.304C382.42 208.032 382.9 210.272 382.9 213.024V228H372.052V214.896C372.052 213.264 371.764 212.112 371.188 211.44C370.612 210.736 369.828 210.384 368.836 210.384C368.1 210.384 367.412 210.56 366.772 210.912C366.164 211.232 365.668 211.776 365.284 212.544C364.932 213.312 364.756 214.352 364.756 215.664V228H353.908V192.384H364.756V209.424L362.164 207.216C363.188 205.232 364.564 203.744 366.292 202.752C368.052 201.76 370.004 201.264 372.148 201.264ZM104.811 287V282.344L104.043 281.096V272.264C104.043 270.984 103.643 270.008 102.843 269.336C102.075 268.664 100.811 268.328 99.0514 268.328C97.8674 268.328 96.6674 268.52 95.4514 268.904C94.2354 269.256 93.1954 269.752 92.3314 270.392L88.8754 263.24C90.4114 262.28 92.2514 261.544 94.3954 261.032C96.5394 260.52 98.6354 260.264 100.683 260.264C105.195 260.264 108.683 261.272 111.147 263.288C113.643 265.304 114.891 268.504 114.891 272.888V287H104.811ZM97.3714 287.48C95.2274 287.48 93.4354 287.112 91.9954 286.376C90.5554 285.64 89.4674 284.664 88.7314 283.448C87.9954 282.2 87.6274 280.824 87.6274 279.32C87.6274 277.624 88.0594 276.184 88.9234 275C89.7874 273.816 91.0994 272.92 92.8594 272.312C94.6514 271.704 96.9074 271.4 99.6274 271.4H105.099V276.632H101.355C100.203 276.632 99.3554 276.824 98.8114 277.208C98.2994 277.56 98.0434 278.104 98.0434 278.84C98.0434 279.448 98.2674 279.96 98.7154 280.376C99.1954 280.76 99.8354 280.952 100.635 280.952C101.371 280.952 102.043 280.76 102.651 280.376C103.291 279.96 103.755 279.32 104.043 278.456L105.435 281.672C105.019 283.624 104.139 285.08 102.795 286.04C101.451 287 99.6434 287.48 97.3714 287.48ZM119.58 287V251.384H130.428V287H119.58ZM135.236 287V251.384H146.084V287H135.236ZM177.955 287.48C174.339 287.48 171.523 286.616 169.507 284.888C167.491 283.128 166.483 280.44 166.483 276.824V254.84H177.331V276.728C177.331 277.528 177.539 278.152 177.955 278.6C178.403 279.048 178.947 279.272 179.587 279.272C180.515 279.272 181.331 279.032 182.035 278.552L184.627 286.088C183.795 286.568 182.787 286.92 181.603 287.144C180.451 287.368 179.235 287.48 177.955 287.48ZM162.883 270.104V262.184H182.707V270.104H162.883ZM205.601 260.264C207.617 260.264 209.441 260.68 211.073 261.512C212.705 262.312 213.985 263.576 214.913 265.304C215.873 267.032 216.353 269.272 216.353 272.024V287H205.505V273.896C205.505 272.264 205.217 271.112 204.641 270.44C204.065 269.736 203.281 269.384 202.289 269.384C201.553 269.384 200.865 269.56 200.225 269.912C199.617 270.232 199.121 270.776 198.737 271.544C198.385 272.312 198.209 273.352 198.209 274.664V287H187.361V251.384H198.209V268.424L195.617 266.216C196.641 264.232 198.017 262.744 199.745 261.752C201.505 260.76 203.457 260.264 205.601 260.264ZM236.029 287.48C232.829 287.48 230.029 286.888 227.629 285.704C225.261 284.52 223.421 282.904 222.109 280.856C220.797 278.776 220.141 276.44 220.141 273.848C220.141 271.192 220.781 268.84 222.061 266.792C223.373 264.744 225.149 263.144 227.389 261.992C229.661 260.84 232.205 260.264 235.021 260.264C237.613 260.264 239.997 260.776 242.173 261.8C244.381 262.824 246.141 264.344 247.453 266.36C248.797 268.376 249.469 270.872 249.469 273.848C249.469 274.232 249.453 274.664 249.421 275.144C249.389 275.592 249.357 276.008 249.325 276.392H229.117V271.16H243.565L239.485 272.552C239.485 271.528 239.293 270.664 238.909 269.96C238.557 269.224 238.061 268.664 237.421 268.28C236.781 267.864 236.013 267.656 235.117 267.656C234.221 267.656 233.437 267.864 232.765 268.28C232.125 268.664 231.629 269.224 231.277 269.96C230.925 270.664 230.749 271.528 230.749 272.552V274.184C230.749 275.304 230.973 276.264 231.421 277.064C231.869 277.864 232.509 278.472 233.341 278.888C234.173 279.272 235.181 279.464 236.365 279.464C237.581 279.464 238.573 279.304 239.341 278.984C240.141 278.664 240.973 278.184 241.837 277.544L247.501 283.256C246.221 284.632 244.637 285.688 242.749 286.424C240.893 287.128 238.653 287.48 236.029 287.48ZM278.803 287.48C276.531 287.48 274.419 286.936 272.467 285.848C270.547 284.728 269.011 283.16 267.859 281.144C266.707 279.096 266.131 276.664 266.131 273.848C266.131 271.032 266.707 268.616 267.859 266.6C269.011 264.552 270.547 262.984 272.467 261.896C274.419 260.808 276.531 260.264 278.803 260.264C281.107 260.264 282.995 260.76 284.467 261.752C285.939 262.712 287.027 264.2 287.731 266.216C288.435 268.2 288.787 270.744 288.787 273.848C288.787 276.984 288.451 279.56 287.779 281.576C287.139 283.592 286.083 285.08 284.611 286.04C283.171 287 281.235 287.48 278.803 287.48ZM281.395 279.032C282.195 279.032 282.915 278.84 283.555 278.456C284.195 278.072 284.707 277.496 285.091 276.728C285.475 275.928 285.667 274.968 285.667 273.848C285.667 272.696 285.475 271.752 285.091 271.016C284.707 270.248 284.195 269.672 283.555 269.288C282.915 268.904 282.195 268.712 281.395 268.712C280.595 268.712 279.875 268.904 279.235 269.288C278.595 269.672 278.083 270.248 277.699 271.016C277.315 271.752 277.123 272.696 277.123 273.848C277.123 274.968 277.315 275.928 277.699 276.728C278.083 277.496 278.595 278.072 279.235 278.456C279.875 278.84 280.595 279.032 281.395 279.032ZM286.003 287V283.448L285.955 273.848L285.475 264.248V251.384H296.323V287H286.003ZM314.999 287.48C312.023 287.48 309.383 286.904 307.079 285.752C304.807 284.568 303.015 282.952 301.703 280.904C300.391 278.856 299.735 276.504 299.735 273.848C299.735 271.192 300.391 268.84 301.703 266.792C303.015 264.744 304.807 263.144 307.079 261.992C309.383 260.84 312.023 260.264 314.999 260.264C317.975 260.264 320.615 260.84 322.919 261.992C325.223 263.144 327.015 264.744 328.295 266.792C329.607 268.84 330.263 271.192 330.263 273.848C330.263 276.504 329.607 278.856 328.295 280.904C327.015 282.952 325.223 284.568 322.919 285.752C320.615 286.904 317.975 287.48 314.999 287.48ZM314.999 279.032C315.799 279.032 316.519 278.84 317.159 278.456C317.799 278.072 318.311 277.496 318.695 276.728C319.079 275.928 319.271 274.968 319.271 273.848C319.271 272.696 319.079 271.752 318.695 271.016C318.311 270.248 317.799 269.672 317.159 269.288C316.519 268.904 315.799 268.712 314.999 268.712C314.199 268.712 313.479 268.904 312.839 269.288C312.199 269.672 311.687 270.248 311.303 271.016C310.919 271.752 310.727 272.696 310.727 273.848C310.727 274.968 310.919 275.928 311.303 276.728C311.687 277.496 312.199 278.072 312.839 278.456C313.479 278.84 314.199 279.032 314.999 279.032ZM346.33 287.48C342.714 287.48 339.898 286.616 337.882 284.888C335.866 283.128 334.858 280.44 334.858 276.824V254.84H345.706V276.728C345.706 277.528 345.914 278.152 346.33 278.6C346.778 279.048 347.322 279.272 347.962 279.272C348.89 279.272 349.706 279.032 350.41 278.552L353.002 286.088C352.17 286.568 351.162 286.92 349.978 287.144C348.826 287.368 347.61 287.48 346.33 287.48ZM331.258 270.104V262.184H351.082V270.104H331.258ZM366.008 287.48C363.768 287.48 361.56 287.24 359.384 286.76C357.208 286.28 355.448 285.656 354.104 284.888L357.08 277.736C358.328 278.472 359.768 279.048 361.4 279.464C363.064 279.88 364.68 280.088 366.248 280.088C367.56 280.088 368.44 279.976 368.888 279.752C369.368 279.528 369.608 279.224 369.608 278.84C369.608 278.456 369.336 278.184 368.792 278.024C368.248 277.832 367.528 277.688 366.632 277.592C365.736 277.496 364.744 277.384 363.656 277.256C362.6 277.096 361.528 276.872 360.44 276.584C359.352 276.296 358.36 275.864 357.464 275.288C356.568 274.712 355.848 273.944 355.304 272.984C354.76 271.992 354.488 270.744 354.488 269.24C354.488 267.576 354.984 266.072 355.976 264.728C357 263.384 358.504 262.312 360.488 261.512C362.504 260.68 364.984 260.264 367.928 260.264C369.848 260.264 371.768 260.44 373.688 260.792C375.608 261.144 377.256 261.688 378.632 262.424L375.656 269.576C374.312 268.84 372.984 268.344 371.672 268.088C370.392 267.8 369.192 267.656 368.072 267.656C366.696 267.656 365.752 267.784 365.24 268.04C364.76 268.296 364.52 268.584 364.52 268.904C364.52 269.288 364.792 269.576 365.336 269.768C365.88 269.96 366.6 270.104 367.496 270.2C368.392 270.296 369.368 270.424 370.424 270.584C371.512 270.712 372.584 270.936 373.64 271.256C374.728 271.544 375.72 271.976 376.616 272.552C377.512 273.128 378.232 273.912 378.776 274.904C379.32 275.864 379.592 277.096 379.592 278.6C379.592 280.168 379.096 281.64 378.104 283.016C377.112 284.36 375.608 285.448 373.592 286.28C371.576 287.08 369.048 287.48 366.008 287.48Z" fill="black"/>
</svg>
