<svg width="457" height="457" viewBox="0 0 457 457" fill="none" xmlns="http://www.w3.org/2000/svg">
<circle cx="228.08" cy="228.08" r="228.08" fill="#ED2931"/>
<path d="M96.232 255L85.48 221.4H97.144L105.832 249.768H99.976L109.192 221.4H119.608L128.2 249.768H122.584L131.656 221.4H142.408L131.656 255H119.512L112.504 231.768H115.768L108.376 255H96.232ZM163.531 228.264C165.547 228.264 167.371 228.68 169.003 229.512C170.635 230.312 171.915 231.576 172.843 233.304C173.803 235.032 174.283 237.272 174.283 240.024V255H163.435V241.896C163.435 240.264 163.147 239.112 162.571 238.44C161.995 237.736 161.211 237.384 160.219 237.384C159.483 237.384 158.795 237.56 158.155 237.912C157.547 238.232 157.051 238.776 156.667 239.544C156.315 240.312 156.139 241.352 156.139 242.664V255H145.291V219.384H156.139V236.424L153.547 234.216C154.571 232.232 155.947 230.744 157.675 229.752C159.435 228.76 161.387 228.264 163.531 228.264ZM193.335 255.48C190.359 255.48 187.719 254.904 185.415 253.752C183.143 252.568 181.351 250.952 180.039 248.904C178.727 246.856 178.071 244.504 178.071 241.848C178.071 239.192 178.727 236.84 180.039 234.792C181.351 232.744 183.143 231.144 185.415 229.992C187.719 228.84 190.359 228.264 193.335 228.264C196.311 228.264 198.951 228.84 201.255 229.992C203.559 231.144 205.351 232.744 206.631 234.792C207.943 236.84 208.599 239.192 208.599 241.848C208.599 244.504 207.943 246.856 206.631 248.904C205.351 250.952 203.559 252.568 201.255 253.752C198.951 254.904 196.311 255.48 193.335 255.48ZM193.335 247.032C194.135 247.032 194.855 246.84 195.495 246.456C196.135 246.072 196.647 245.496 197.031 244.728C197.415 243.928 197.607 242.968 197.607 241.848C197.607 240.696 197.415 239.752 197.031 239.016C196.647 238.248 196.135 237.672 195.495 237.288C194.855 236.904 194.135 236.712 193.335 236.712C192.535 236.712 191.815 236.904 191.174 237.288C190.535 237.672 190.023 238.248 189.639 239.016C189.255 239.752 189.062 240.696 189.062 241.848C189.062 242.968 189.255 243.928 189.639 244.728C190.023 245.496 190.535 246.072 191.174 246.456C191.815 246.84 192.535 247.032 193.335 247.032ZM226.384 255V228.744H237.232V255H226.384ZM231.808 226.632C229.824 226.632 228.24 226.104 227.056 225.048C225.872 223.992 225.28 222.68 225.28 221.112C225.28 219.544 225.872 218.232 227.056 217.176C228.24 216.12 229.824 215.592 231.808 215.592C233.792 215.592 235.376 216.088 236.56 217.08C237.744 218.072 238.336 219.352 238.336 220.92C238.336 222.584 237.744 223.96 236.56 225.048C235.376 226.104 233.792 226.632 231.808 226.632ZM252.313 255.48C250.073 255.48 247.865 255.24 245.689 254.76C243.513 254.28 241.753 253.656 240.409 252.888L243.385 245.736C244.633 246.472 246.073 247.048 247.705 247.464C249.369 247.88 250.985 248.088 252.553 248.088C253.865 248.088 254.745 247.976 255.193 247.752C255.673 247.528 255.913 247.224 255.913 246.84C255.913 246.456 255.641 246.184 255.097 246.024C254.553 245.832 253.833 245.688 252.937 245.592C252.041 245.496 251.049 245.384 249.961 245.256C248.905 245.096 247.833 244.872 246.745 244.584C245.657 244.296 244.665 243.864 243.769 243.288C242.873 242.712 242.153 241.944 241.609 240.984C241.065 239.992 240.793 238.744 240.793 237.24C240.793 235.576 241.289 234.072 242.281 232.728C243.305 231.384 244.809 230.312 246.793 229.512C248.809 228.68 251.289 228.264 254.233 228.264C256.153 228.264 258.073 228.44 259.993 228.792C261.913 229.144 263.561 229.688 264.937 230.424L261.961 237.576C260.617 236.84 259.289 236.344 257.977 236.088C256.697 235.8 255.497 235.656 254.377 235.656C253.001 235.656 252.057 235.784 251.545 236.04C251.065 236.296 250.825 236.584 250.825 236.904C250.825 237.288 251.097 237.576 251.641 237.768C252.185 237.96 252.905 238.104 253.801 238.2C254.697 238.296 255.673 238.424 256.729 238.584C257.817 238.712 258.889 238.936 259.945 239.256C261.033 239.544 262.025 239.976 262.921 240.552C263.817 241.128 264.537 241.912 265.081 242.904C265.625 243.864 265.897 245.096 265.897 246.6C265.897 248.168 265.401 249.64 264.409 251.016C263.417 252.36 261.913 253.448 259.897 254.28C257.881 255.08 255.353 255.48 252.313 255.48ZM293.844 255.48C291.604 255.48 289.396 255.24 287.22 254.76C285.044 254.28 283.284 253.656 281.94 252.888L284.916 245.736C286.164 246.472 287.604 247.048 289.236 247.464C290.9 247.88 292.516 248.088 294.084 248.088C295.396 248.088 296.276 247.976 296.724 247.752C297.204 247.528 297.444 247.224 297.444 246.84C297.444 246.456 297.172 246.184 296.628 246.024C296.084 245.832 295.364 245.688 294.468 245.592C293.572 245.496 292.58 245.384 291.492 245.256C290.436 245.096 289.364 244.872 288.276 244.584C287.188 244.296 286.196 243.864 285.3 243.288C284.404 242.712 283.684 241.944 283.14 240.984C282.596 239.992 282.324 238.744 282.324 237.24C282.324 235.576 282.82 234.072 283.812 232.728C284.836 231.384 286.34 230.312 288.324 229.512C290.34 228.68 292.82 228.264 295.764 228.264C297.684 228.264 299.604 228.44 301.524 228.792C303.444 229.144 305.092 229.688 306.468 230.424L303.492 237.576C302.148 236.84 300.82 236.344 299.508 236.088C298.228 235.8 297.028 235.656 295.908 235.656C294.532 235.656 293.588 235.784 293.076 236.04C292.596 236.296 292.356 236.584 292.356 236.904C292.356 237.288 292.628 237.576 293.172 237.768C293.716 237.96 294.436 238.104 295.332 238.2C296.228 238.296 297.204 238.424 298.26 238.584C299.348 238.712 300.42 238.936 301.476 239.256C302.564 239.544 303.556 239.976 304.452 240.552C305.348 241.128 306.068 241.912 306.612 242.904C307.156 243.864 307.428 245.096 307.428 246.6C307.428 248.168 306.932 249.64 305.94 251.016C304.948 252.36 303.444 253.448 301.428 254.28C299.412 255.08 296.884 255.48 293.844 255.48ZM328.953 228.264C330.969 228.264 332.793 228.68 334.425 229.512C336.057 230.312 337.337 231.576 338.265 233.304C339.225 235.032 339.705 237.272 339.705 240.024V255H328.857V241.896C328.857 240.264 328.569 239.112 327.993 238.44C327.417 237.736 326.633 237.384 325.641 237.384C324.905 237.384 324.217 237.56 323.577 237.912C322.969 238.232 322.473 238.776 322.089 239.544C321.737 240.312 321.561 241.352 321.561 242.664V255H310.713V219.384H321.561V236.424L318.969 234.216C319.993 232.232 321.369 230.744 323.097 229.752C324.857 228.76 326.809 228.264 328.953 228.264ZM359.38 255.48C356.18 255.48 353.38 254.888 350.98 253.704C348.612 252.52 346.772 250.904 345.46 248.856C344.148 246.776 343.492 244.44 343.492 241.848C343.492 239.192 344.132 236.84 345.412 234.792C346.724 232.744 348.5 231.144 350.74 229.992C353.012 228.84 355.556 228.264 358.372 228.264C360.964 228.264 363.348 228.776 365.524 229.8C367.732 230.824 369.492 232.344 370.804 234.36C372.148 236.376 372.82 238.872 372.82 241.848C372.82 242.232 372.804 242.664 372.772 243.144C372.74 243.592 372.708 244.008 372.676 244.392H352.468V239.16H366.916L362.836 240.552C362.836 239.528 362.644 238.664 362.26 237.96C361.908 237.224 361.412 236.664 360.772 236.28C360.132 235.864 359.364 235.656 358.468 235.656C357.572 235.656 356.788 235.864 356.116 236.28C355.476 236.664 354.98 237.224 354.628 237.96C354.276 238.664 354.1 239.528 354.1 240.552V242.184C354.1 243.304 354.324 244.264 354.772 245.064C355.22 245.864 355.86 246.472 356.692 246.888C357.524 247.272 358.532 247.464 359.716 247.464C360.932 247.464 361.924 247.304 362.692 246.984C363.492 246.664 364.324 246.184 365.188 245.544L370.852 251.256C369.572 252.632 367.988 253.688 366.1 254.424C364.244 255.128 362.004 255.48 359.38 255.48Z" fill="black"/>
</svg>
